<?xml version="1.0" standalone="no"?>
<!DOCTYPE svg PUBLIC "-//W3C//DTD SVG 20010904//EN"
 "http://www.w3.org/TR/2001/REC-SVG-20010904/DTD/svg10.dtd">
<svg version="1.0" xmlns="http://www.w3.org/2000/svg"
 width="319.000000pt" height="319.000000pt" viewBox="0 0 319.000000 319.000000"
 preserveAspectRatio="xMidYMid meet">
<metadata>
Created by potrace 1.14, written by Peter Selinger 2001-2017
</metadata>
<g transform="translate(0.000000,319.000000) scale(0.100000,-0.100000)"
fill="#000000" stroke="none">
<path d="M1573 3104 c-6 -13 -7 -22 -2 -18 5 3 9 -4 9 -16 0 -14 -4 -19 -12
-14 -10 6 -10 4 0 -8 7 -9 9 -18 5 -21 -5 -3 -8 -35 -8 -71 1 -39 -3 -66 -10
-66 -5 0 -4 -4 4 -9 7 -5 9 -11 4 -14 -5 -3 -9 -27 -8 -52 0 -25 -2 -45 -5
-45 -4 0 -6 -19 -5 -42 1 -24 0 -47 -3 -53 -8 -13 -12 -52 -15 -147 -1 -43 -4
-78 -7 -78 -3 0 -6 -26 -8 -57 -2 -31 -8 -64 -15 -72 -9 -12 -9 -13 1 -7 6 4
12 2 12 -3 0 -6 -4 -11 -10 -11 -5 0 -10 -5 -10 -11 0 -5 5 -7 12 -3 7 5 8 3
2 -7 -4 -8 -10 -27 -11 -44 -5 -48 -11 -90 -13 -90 -2 0 -9 -59 -12 -102 -2
-17 -7 -29 -12 -25 -5 3 -7 -2 -3 -11 3 -9 0 -38 -8 -65 l-15 -49 -47 1 c-43
1 -48 3 -51 26 -1 14 -3 31 -4 38 -1 6 -4 12 -7 12 -3 0 -6 19 -6 43 0 23 -4
45 -8 48 -5 4 -10 26 -11 51 -2 25 -6 51 -11 58 -6 9 -4 11 5 5 10 -6 11 -4 4
6 -5 8 -9 23 -9 34 0 11 -3 25 -6 30 -3 6 -5 26 -5 47 1 20 -2 34 -6 31 -5 -2
-8 0 -8 6 0 5 5 13 10 16 7 4 6 13 -1 27 -6 11 -9 31 -6 44 2 13 0 24 -5 24
-5 0 -7 4 -4 9 3 4 1 22 -3 39 -6 20 -5 34 2 42 9 10 9 11 0 6 -9 -5 -11 3 -9
29 2 19 0 38 -5 41 -5 3 -5 14 1 25 6 10 7 19 3 19 -4 0 -8 16 -9 35 0 22 3
32 10 28 6 -4 5 0 -2 9 -7 9 -13 32 -14 51 -1 20 -5 34 -9 32 -4 -3 -10 1 -13
7 -3 7 -5 2 -5 -12 1 -14 0 -27 -1 -30 -1 -3 -3 -23 -5 -45 -2 -22 -6 -62 -9
-90 -10 -84 -17 -155 -21 -204 -2 -25 -4 -46 -5 -46 -1 0 -4 -20 -6 -45 -6
-56 -11 -85 -13 -85 -1 0 -4 -22 -7 -50 -2 -27 -7 -57 -11 -65 -3 -8 -7 -28
-8 -45 -2 -16 -4 -30 -5 -30 -2 0 -5 -15 -14 -80 -2 -16 -5 -32 -6 -35 -1 -3
-2 -8 -1 -12 0 -5 -3 -8 -9 -8 -5 0 -7 -7 -4 -15 4 -8 1 -15 -5 -15 -6 0 -11
-5 -11 -11 0 -5 6 -7 13 -3 9 6 9 5 0 -8 -7 -8 -10 -18 -6 -21 3 -4 1 -7 -5
-7 -6 0 -9 -7 -5 -17 4 -11 3 -14 -6 -9 -6 4 -19 2 -28 -6 -12 -9 -15 -9 -9 0
9 15 -6 16 -22 0 -9 -9 -13 -7 -18 5 -3 9 -9 15 -13 12 -4 -2 -7 9 -6 25 1 16
-2 27 -6 24 -4 -2 -11 12 -15 33 -4 21 -8 46 -10 57 -2 10 -8 24 -15 32 -9 11
-8 14 2 14 9 0 10 3 4 8 -6 4 -10 17 -9 30 1 12 -2 25 -7 28 -4 2 -6 11 -2 19
3 8 1 15 -3 15 -5 0 -9 17 -8 37 0 21 -2 42 -5 48 -6 11 -10 42 -15 115 -2 30
-5 55 -6 55 -4 0 -10 43 -11 82 -2 45 -19 85 -19 46 0 -13 -6 -23 -12 -23 -10
0 -9 -3 1 -9 7 -5 9 -11 4 -14 -5 -3 -9 -26 -8 -51 0 -25 -3 -46 -6 -46 -4 0
-5 -14 -3 -31 2 -16 0 -28 -4 -25 -4 2 -8 -22 -7 -55 1 -32 -2 -59 -5 -59 -3
0 -5 -12 -4 -27 1 -16 -1 -32 -5 -38 -3 -5 -6 -44 -8 -85 -3 -112 -7 -144 -18
-152 -6 -5 -5 -8 4 -8 9 0 10 -4 4 -12 -5 -7 -9 -34 -8 -60 0 -27 -1 -48 -5
-48 -3 0 -6 -31 -8 -69 l-2 -69 35 -6 c19 -4 35 -11 35 -17 0 -6 5 -7 10 -4 6
3 10 1 10 -5 0 -7 7 -9 16 -6 8 3 12 2 9 -4 -3 -6 3 -10 13 -10 11 0 25 -7 32
-15 7 -8 18 -15 26 -15 7 0 20 -7 28 -16 9 -8 16 -13 16 -9 0 4 6 0 13 -7 8
-7 26 -22 42 -33 15 -11 36 -28 47 -37 10 -10 20 -18 23 -18 13 0 43 -35 38
-44 -3 -6 -3 -8 1 -4 8 7 76 -58 76 -73 0 -5 4 -9 8 -9 11 0 98 -120 94 -131
-1 -5 2 -9 8 -9 5 0 10 -7 10 -16 0 -8 5 -12 10 -9 6 3 10 -3 10 -14 0 -12 5
-21 10 -21 6 0 10 -7 10 -15 0 -8 4 -15 8 -15 4 0 8 -10 9 -22 1 -11 7 -24 14
-28 6 -4 8 -13 5 -19 -4 -6 -2 -11 3 -11 6 0 11 -7 11 -16 0 -8 4 -13 9 -10 5
4 7 -2 4 -12 -2 -11 3 -26 11 -35 12 -11 13 -17 3 -20 -9 -4 -9 -6 1 -6 7 -1
10 -6 7 -11 -3 -6 -1 -10 5 -10 6 0 8 -4 5 -10 -3 -5 -2 -10 4 -10 5 0 8 -8 6
-18 -1 -9 1 -22 6 -27 4 -6 10 -22 13 -35 3 -14 9 -42 15 -62 5 -20 6 -39 3
-42 -3 -4 0 -6 7 -6 9 0 12 -9 9 -25 -3 -14 -1 -25 6 -25 6 0 4 -5 -4 -10 -8
-5 -10 -10 -4 -10 6 0 11 -6 12 -12 6 -51 12 -98 18 -127 3 -18 6 -59 7 -91 1
-32 5 -56 10 -53 4 2 7 -7 7 -21 0 -14 5 -26 11 -26 5 0 8 4 4 9 -3 5 -1 12 4
16 6 3 8 12 4 20 -3 9 1 23 8 32 10 12 10 15 2 9 -7 -4 -13 -3 -13 3 0 5 4 12
9 15 5 3 8 26 8 51 -1 25 1 45 5 45 3 0 4 10 0 22 -3 11 -1 19 4 16 5 -4 9 14
8 38 0 24 3 44 7 44 4 0 6 6 6 13 -3 26 15 117 22 113 4 -3 7 7 7 22 1 32 6
55 16 62 3 3 8 21 10 40 1 19 6 37 10 40 4 3 9 16 11 28 2 12 7 25 12 29 4 5
5 2 0 -6 -5 -9 -4 -12 3 -8 5 4 9 15 8 25 -2 9 5 33 15 52 11 19 19 40 19 47
0 7 5 13 11 13 6 0 8 7 5 16 -3 8 -2 12 4 9 6 -3 10 2 10 12 0 10 11 31 25 47
14 16 25 33 25 38 0 9 12 25 46 63 12 13 20 26 18 28 -3 2 7 15 21 28 13 13
25 30 25 37 0 6 6 12 14 12 8 0 18 9 21 20 4 11 10 18 15 15 5 -3 11 4 15 15
4 11 10 18 15 15 5 -3 12 1 17 8 4 7 28 29 53 48 24 18 50 39 57 46 7 6 22 15
33 18 11 3 20 11 20 17 0 5 7 7 16 4 8 -3 13 -2 10 2 -3 5 18 19 47 31 29 13
61 30 71 39 11 10 16 11 12 5 -4 -8 4 -6 21 4 25 14 29 21 26 57 -2 23 -5 70
-7 106 -2 36 -7 74 -11 85 -5 16 -5 17 4 5 6 -8 11 -10 11 -4 0 6 -3 14 -7 17
-8 9 -15 60 -17 125 0 28 -4 52 -7 52 -4 0 -7 15 -7 33 0 17 -1 34 -2 37 -3 6
-10 71 -10 88 0 6 0 18 1 25 0 6 -2 28 -5 47 -3 19 -7 52 -8 72 -1 24 -5 35
-12 31 -6 -4 -5 1 3 10 7 9 9 17 4 17 -5 0 -10 16 -11 35 -4 62 -6 74 -14 69
-4 -3 -8 -18 -8 -33 0 -15 -6 -33 -12 -40 -11 -11 -10 -12 1 -6 11 6 13 4 7
-11 -5 -10 -10 -46 -11 -79 -2 -33 -6 -73 -10 -90 -3 -16 -7 -47 -8 -67 -1
-21 -5 -38 -9 -38 -5 0 -8 -5 -8 -11 0 -5 4 -8 9 -5 5 3 2 -13 -5 -35 -8 -22
-12 -45 -9 -50 4 -5 2 -9 -2 -9 -8 0 -12 -19 -14 -73 0 -9 -4 -15 -8 -13 -4 3
-7 -5 -6 -17 1 -12 -1 -29 -5 -37 -5 -8 -10 -30 -13 -49 -5 -32 -37 -79 -37
-54 0 7 -15 13 -32 15 -18 2 -31 7 -30 12 2 5 -1 12 -8 16 -6 4 -13 20 -16 35
-3 16 -8 34 -12 40 -4 5 -7 28 -7 50 0 22 -5 45 -11 52 -6 7 -10 26 -8 42 2
17 -1 31 -6 31 -5 0 -8 14 -6 30 2 17 0 30 -4 30 -4 0 -5 11 -2 25 2 14 0 25
-6 25 -5 0 -9 16 -7 35 1 19 -1 35 -5 35 -4 0 -6 12 -4 27 1 15 -3 34 -9 42
-10 12 -9 13 2 6 11 -6 12 -5 5 6 -5 8 -10 28 -11 44 0 17 -2 30 -3 30 -1 0
-3 16 -5 35 -1 19 -3 35 -5 35 -1 0 -3 28 -4 62 -2 36 -8 69 -17 79 -12 16
-12 17 4 11 13 -5 16 -3 10 6 -10 17 -13 32 -17 102 -2 33 -4 64 -5 70 -1 5
-6 4 -13 -3 -10 -10 -21 -123 -21 -219 0 -21 -4 -30 -11 -26 -6 4 -5 -1 3 -10
11 -14 11 -17 0 -17 -11 0 -11 -2 1 -10 8 -5 10 -10 5 -10 -10 0 -12 -10 -17
-120 -2 -36 -7 -68 -13 -72 -6 -5 -5 -8 4 -8 9 0 10 -4 4 -12 -5 -7 -9 -32 -9
-55 1 -22 -2 -39 -6 -36 -5 2 -8 -8 -9 -24 -2 -71 -6 -102 -15 -115 -5 -7 -9
-28 -8 -46 2 -22 -1 -30 -9 -25 -8 5 -8 2 0 -9 7 -8 10 -18 6 -22 -8 -8 -13
-30 -15 -68 0 -16 -4 -29 -7 -29 -3 -1 -25 -2 -49 -3 -48 -3 -64 10 -66 52 -1
15 -5 33 -9 40 -5 7 -3 12 5 12 10 0 10 2 -1 9 -7 5 -10 14 -7 20 4 6 3 11 -2
11 -6 0 -8 9 -5 20 3 11 0 26 -6 34 -9 10 -9 16 -1 21 7 4 7 11 2 18 -5 7 -10
28 -11 47 -5 55 -7 65 -13 75 -3 6 -5 27 -4 48 1 20 -3 39 -9 41 -5 3 -4 5 3
5 9 1 10 6 4 19 -5 9 -8 25 -7 35 2 9 0 17 -4 17 -3 0 -6 23 -6 50 0 28 -2 50
-5 50 -5 0 -11 77 -13 186 -1 34 -5 60 -8 58 -3 -2 -6 14 -6 34 -3 116 -12
195 -25 203 -11 7 -11 9 1 9 11 0 11 3 1 15 -9 11 -9 15 -1 15 8 0 9 5 1 19
-5 11 -6 21 -2 23 4 2 3 13 -3 24 l-11 22 -11 -24z"/>
<path d="M2205 1839 c-4 -6 -5 -12 -2 -15 2 -3 7 2 10 11 7 17 1 20 -8 4z"/>
</g>
</svg>
